<svg id="Layer_1" data-name="Layer 1" xmlns="http://www.w3.org/2000/svg" viewBox="0 0 41.88 23.86"><defs><style>.cls-1{fill:#191818;}</style></defs><rect class="cls-1" y="11.51" width="41.88" height="4.29" rx="2.15"/><rect class="cls-1" y="19.57" width="41.88" height="4.29" rx="2.15"/><path class="cls-1" d="M41,7.28a1.18,1.18,0,0,0-.51-.41l-.21-.08c-1.24-.51-3.8-1.57-9.53-1.62h-.12a16.1,16.1,0,0,1-5.24-.63A21.63,21.63,0,0,1,23,3.5c-4.17-2.11-9.42-1-9.47-1l-4.19.77h0s-3.39.87-6-.38L3,2.74V3.1A1.64,1.64,0,0,0,4.37,4.51l.68.2L4.79,4.4a41.32,41.32,0,0,1,5.65.5l5.34.5L13.27,3.52c1.58-.29,6.6-1,10.72,1.36l1.15.71c-.68.3-2.73.83-8.47.47-2.11-.14-4.15-.39-5.94-.62C5.6,4.79,1.89,4.32.68,7.06L.06,8.44,1,7.33s1.88-2.11,10.81-.41C19.19,8,22.44,7.5,25.3,7l.45-.08a37.4,37.4,0,0,1,7.56-.48,26.84,26.84,0,0,1,7.51,1.21l.64.21Z" transform="translate(-0.06 -0.14)"/><path class="cls-1" d="M24.22,1A2.66,2.66,0,0,1,25.7.18a2.87,2.87,0,0,1,1.65.23,3.43,3.43,0,0,1,1.37,1.15,3.87,3.87,0,0,1,.71,1.79v0l0,0v0a4.6,4.6,0,0,0-.4-.8,5.18,5.18,0,0,0-.5-.7,3.92,3.92,0,0,0-1.29-1,3.24,3.24,0,0,0-1.49-.3A3.17,3.17,0,0,0,25,.73a4.11,4.11,0,0,0-.73.29h0l0,0Z" transform="translate(-0.06 -0.14)"/><path class="cls-1" d="M24.64,2.11a1.85,1.85,0,0,1,1.1-.68A2.13,2.13,0,0,1,27,1.58a2.6,2.6,0,0,1,1,.9,2.69,2.69,0,0,1,.47,1.39v0h0v0a3.59,3.59,0,0,0-.29-.59,3.92,3.92,0,0,0-.37-.51,3,3,0,0,0-1-.71,2.29,2.29,0,0,0-1.09-.22,2.72,2.72,0,0,0-.56.09,2.66,2.66,0,0,0-.53.21h0V2.11Z" transform="translate(-0.06 -0.14)"/><path class="cls-1" d="M25.07,3.25a1.15,1.15,0,0,1,.7-.57,1.25,1.25,0,0,1,.87.08,1.57,1.57,0,0,1,.7.63,1.71,1.71,0,0,1,.24,1v0h0v0l-.09-.19L27.34,4a1.74,1.74,0,0,0-.11-.18l-.13-.15a1.76,1.76,0,0,0-.61-.45,1.43,1.43,0,0,0-.7-.15l-.18,0-.18,0-.17.06-.17.08h0v0Z" transform="translate(-0.06 -0.14)"/></svg>